<svg xmlns="http://www.w3.org/2000/svg" width="575.823" height="542.979" viewBox="0 0 575.823 542.979">
  <g id="Group_199" data-name="Group 199" transform="translate(-226.456 -404.651)">
    <path id="Path_388" data-name="Path 388" d="M755.975,831.108c0-109.27-52.015-369.708-284.786-345.727C341.469,498.744,244.125,690.127,244.125,799.4s127.2,112.872,257.383,112.872S755.975,940.385,755.975,831.108Z" transform="translate(26.159 -79.179)" fill="#b4e7ea"/>
    <path id="Path_389" data-name="Path 389" d="M439.086,553.4H270.64s14.68-2.8,15.781-13.568c4.405-7.98,12.112,4.388,12.479-12.77.1-4.852,2.366-12.606,12.474-11.172,8.441,1.2,7.513,4.708,11.182,11.093,12.251,21.312,9,.481,14.141-3.51,4.222-3.279,9.8,2.282,8.441,5.985-2.2,5.985,1.833,23.141,14.68,7.181,4.435-5.512,15.191-1.672,13.945,2.4-.985,3.21,7.34,7.181,9.54,7.181s8.074-8.778,8.074-8.778,6.606-.8,8.808.8,1.836,5.187,4.036,9.175,7.707-1.2,9.91-1.2,7.2-2.314,8.806.8C426.242,553.4,439.086,553.4,439.086,553.4Z" transform="translate(65.414 51.562)" fill="#e0f2f5"/>
    <g id="Group_193" data-name="Group 193" transform="translate(446.211 595.826)">
      <path id="Path_390" data-name="Path 390" d="M374.611,628.205s4.619-7.191,2.327-14.657-6.809-16.847-3.227-22.414,10.279-18.512,5.685-26.112-26.39-5.775-23.932-10.056,5.841-13.591-3.341-13.261-13.119,1.927-18.44-2.344-13.462-2.865-9.384,6.3,1.424,13.633,6.831,19.946,13.648,10.153,3.644,19-1.054,13.633,5,17.433,20.886,24.8,24.091,28.037S371.771,633.7,374.611,628.205Z" transform="translate(-302.989 -512.67)" fill="#8ca24f"/>
      <path id="Path_391" data-name="Path 391" d="M354.47,637.371s11.217-15.575,16.552-17.654,15.627-5.353,16.453-11.522-5.145-21.154,6.794-26.953,14.241-11.1,9.265-17.23,6.2-27.836.613-29.315-25.4,21.211-30.924,28.5-16.309,6.167-15.65,15.786-8.667,24.4-13.881,26.135-9.2,3.48-5.881,10.827,1.543,14.374,3.1,19.276S342.881,644.138,354.47,637.371Z" transform="translate(-283.146 -516.257)" fill="#8ca24f"/>
      <path id="Path_392" data-name="Path 392" d="M324.616,549.227c-3.22-3.7-11.455-.943-9.173,4.862s9.3,10.84,3.636,23.111,13.62,9.54,21.923,14.25,12.832,12.926,19.9,17.1,14.305,16.6,17.676,10.431-2.624-11.567-4.378-20.692,7.117-17.421-4.651-20.623-22.575-2.366-22.468-16.3C347.132,555.216,334.63,560.737,324.616,549.227Z" transform="translate(-315.049 -497.134)" fill="#80acac"/>
      <path id="Path_393" data-name="Path 393" d="M349.079,650.3s1.965-8.272-7.583-16.924-14.752-5.641-.069-17.847-8.26-33.221,5.147-40,15.483-50.674,27.6-48.206,2.746,26.1,11.976,30.153,12.184,11.428-2.21,21.63,18.824,26.923-.975,39.569S376.477,657.986,349.079,650.3Z" transform="translate(-289.553 -527.223)" fill="#697833"/>
    </g>
    <path id="Path_394" data-name="Path 394" d="M339.927,533.929H449.793s-9.572-2.131-10.292-10.356c-2.875-6.092-7.9,3.351-8.141-9.748-.065-3.7-1.543-9.622-8.136-8.528-5.507.915-4.9,3.594-7.293,8.466-7.992,16.272-5.874.367-9.222-2.679-2.753-2.5-6.395,1.741-5.507,4.569,1.436,4.569-1.2,17.669-9.575,5.484-2.892-4.209-9.907-1.277-9.1,1.826.645,2.453-4.787,5.484-6.224,5.484s-5.266-6.7-5.266-6.7-4.306-.608-5.742.61-1.2,3.959-2.634,7.005-5.026-.913-6.462-.913-4.7-1.766-5.747.61C348.3,533.929,339.927,533.929,339.927,533.929Z" transform="translate(167.993 35.945)" fill="#e0f2f5"/>
    <g id="Group_194" data-name="Group 194" transform="translate(535.97 600.532)">
      <path id="Path_395" data-name="Path 395" d="M389.07,631.854s6.963-4.951,7.618-12.737-.045-18.17,5.355-22,16.436-13.353,15-22.116S394.7,559.81,398.582,556.752s10.483-10.433,1.838-13.551-12.891-3.1-16.24-9.044-11.428-7.672-11.056,2.349-3.755,13.184-1.089,21.055,8.883,14.508-3.7,18.988-6.057,12.259-1.85,18.041,10.143,30.8,11.911,34.992S384.384,635.895,389.07,631.854Z" transform="translate(-336.771 -528.791)" fill="#8ca24f"/>
      <path id="Path_396" data-name="Path 396" d="M378.52,618.865s16.213-10.274,21.938-10.215,16.5.851,19.561-4.564,3.106-21.548,16.344-22.483,17.351-5,15.017-12.539,16.126-23.522,11.49-26.975-31.475,10.222-39.318,14.93-17.43-.355-20.4,8.818-17.133,19.42-22.617,19.085-9.83-.2-9.49,7.858-3.924,13.913-4.306,19.04S365.244,620.83,378.52,618.865Z" transform="translate(-328.578 -510.737)" fill="#8ca24f"/>
      <path id="Path_397" data-name="Path 397" d="M369.576,539.721c-1.61-4.634-10.282-5.14-10.324,1.1s4.591,13.524-5.236,22.8,9.089,13.925,15.037,21.392,7.094,16.776,12.1,23.282,7.094,20.73,12.519,16.262,1.873-11.71,3.646-20.834,13.092-13.516,3.366-20.871-20.07-10.607-14.781-23.5C388.239,553.667,374.581,554.133,369.576,539.721Z" transform="translate(-351.235 -518.651)" fill="#80acac"/>
      <path id="Path_398" data-name="Path 398" d="M370.463,634.681s4.9-6.945-.734-18.532-11.589-10.731,6.586-16.59,4.708-33.906,19.678-35.206,33.246-41.261,43.57-34.454-7.174,25.241-.119,32.442,7.05,15.143-10.108,19.249,7.439,32-15.645,36.359S393.028,652.014,370.463,634.681Z" transform="translate(-332.202 -529.12)" fill="#697833"/>
    </g>
    <path id="Path_399" data-name="Path 399" d="M802.279,681.824c0-65.934-133.362-123.789-278.833-123.789S237.435,631.53,227.741,696.747C194.909,917.608,802.279,839.738,802.279,681.824Z" transform="translate(0 114.221)" fill="#92774f"/>
    <path id="Path_400" data-name="Path 400" d="M691.2,649.21c0-29.267-18.4-75.464-159.407-75.464S313.807,713.073,264.428,717.893c0,29.267,70.516,22.793,58.321,57.821C463.758,775.713,684.877,725.719,691.2,649.21Z" transform="translate(56.217 137.481)" fill="#ac8f64"/>
    <path id="Path_401" data-name="Path 401" d="M331.533,610.022s37.612-41.883,83-.141Z" transform="translate(155.566 163.567)" fill="#92774f"/>
    <g id="Group_197" data-name="Group 197" transform="translate(531.083 480.885)">
      <g id="Group_195" data-name="Group 195" transform="translate(37.941)">
        <rect id="Rectangle_40" data-name="Rectangle 40" width="301.051" height="6.143" transform="matrix(0.197, -0.98, 0.98, 0.197, 0, 295.146)" fill="#8a664d"/>
      </g>
      <g id="Group_196" data-name="Group 196" transform="translate(0 277.194)">
        <path id="Path_402" data-name="Path 402" d="M361.152,592.634l-11.887,59.135c6.921,21.084,27.427,27.174,27.427,27.174s21.268,2.307,35.8-14.466l11.887-59.135Z" transform="translate(-349.265 -592.634)" fill="#4a3f3f"/>
      </g>
    </g>
    <path id="Path_403" data-name="Path 403" d="M291.523,642.616s37.612-41.886,83-.141Z" transform="translate(96.332 211.82)" fill="#92774f"/>
    <path id="Path_404" data-name="Path 404" d="M338.387,646.377s37.612-41.886,83-.141Z" transform="translate(165.714 217.388)" fill="#92774f"/>
    <path id="Path_405" data-name="Path 405" d="M378.894,632.019s37.612-41.886,83-.141Z" transform="translate(225.684 196.132)" fill="#92774f"/>
    <g id="Group_198" data-name="Group 198" transform="translate(339.521 652.841)">
      <rect id="Rectangle_41" data-name="Rectangle 41" width="68.026" height="116.65" transform="matrix(1, -0.002, 0.002, 1, 6.611, 0.115)" fill="#f1ad3f"/>
      <path id="Path_406" data-name="Path 406" d="M346.7,557.5s2.138,23.56,3.728,33.628,1.153,62.66.109,64.932l-77.049.131s-3.212-40.536-.089-53.2,5.278-43.6,5.278-43.6Z" transform="translate(-272.038 -539.415)" fill="#f1ad3f"/>
      <path id="Path_407" data-name="Path 407" d="M280.491,569.929s-4.949,17.306-4.939,24.12,2.55,34.588,2.55,34.588l57.786-.1s-.828-24.631-.057-33.283-3.974-25.413-3.974-25.413Z" transform="translate(-266.835 -521.14)" fill="#82babe"/>
    </g>
  </g>
</svg>
